<svg width="239" height="49" viewBox="0 0 239 49" fill="none" xmlns="http://www.w3.org/2000/svg">
<path d="M32.4615 47.4146H12.5766V2.1474C14.5236 2.09013 16.6996 1.97561 19.1047 1.80381C21.338 1.68929 22.3687 1.63202 22.1969 1.63202V2.40509C19.9923 2.97773 18.4318 4.10869 17.5156 5.79797C16.5994 7.54453 16.1413 10.1357 16.1413 13.5716V32.2539C16.1413 35.0599 16.2844 37.5652 16.5708 39.7698C16.8285 42.089 17.1291 43.4204 17.4727 43.764C17.7876 44.1076 18.618 44.2793 19.9637 44.2793H28.9827C32.1609 44.2793 34.795 43.7783 36.8852 42.7762C38.9753 41.7741 40.8077 39.7984 42.3825 36.8494H43.2415C43.041 38.2237 42.3968 40.3997 41.3088 43.3774C40.593 45.2672 40.1349 46.7846 39.9345 47.9299C37.6153 47.5863 35.1243 47.4146 32.4615 47.4146ZM0.422331 1.63202L9.48435 2.1474V47.4146H6.82158C5.18956 47.4146 3.05647 47.5863 0.422331 47.9299V47.1569C2.5411 46.3265 3.98701 44.9951 4.76008 43.1627C5.53314 41.3016 5.91967 38.3239 5.91967 34.2295V13.7004C5.91967 9.31971 5.34703 6.42788 4.20175 5.02491C3.02784 3.59331 1.76803 2.72004 0.422331 2.40509V1.63202ZM99.1064 42.9909C102.227 38.7534 103.788 32.3684 103.788 23.8361C103.788 16.3059 102.242 10.4364 99.1494 6.22745C105.048 9.74919 107.997 15.7762 107.997 24.3085C107.997 32.7263 105.033 38.9538 99.1064 42.9909ZM64.4904 6.18451C61.3409 11.0519 59.7661 17.2794 59.7661 24.8669C59.7661 31.7385 61.2693 37.694 64.2756 42.7332C58.492 38.9252 55.6002 32.8266 55.6002 24.4374C55.6002 15.8192 58.5636 9.73487 64.4904 6.18451ZM96.6155 24.6092C96.6155 10.8945 91.6335 4.03711 81.6696 4.03711C71.9061 4.03711 67.0243 11.0663 67.0243 25.1246C67.0243 38.3525 71.9633 44.9665 81.8414 44.9665C91.6908 44.9665 96.6155 38.1807 96.6155 24.6092ZM100.653 24.5662C100.653 29.8345 99.8509 34.2868 98.2475 37.9231C96.6727 41.5307 94.4537 44.1935 91.5906 45.9114C88.7846 47.6579 85.5063 48.5312 81.7555 48.5312C75.8 48.5312 71.1903 46.3981 67.9262 42.132C64.6622 37.8658 63.0302 31.9962 63.0302 24.5233C63.0302 16.764 64.6908 10.8086 68.0121 6.65693C71.3334 2.56256 75.8859 0.515375 81.6696 0.515375C87.5391 0.515375 92.1775 2.56256 95.5847 6.65693C98.9633 10.7227 100.653 16.6924 100.653 24.5662ZM163.991 44.4511V23.7502C165.365 23.693 166.625 23.6071 167.77 23.4925C169.631 23.3207 170.848 23.2348 171.421 23.2348V24.0079C168.815 25.0673 167.512 27.8732 167.512 32.4257V43.3345C167.312 43.3631 166.753 43.5349 165.837 43.8499C165.379 43.9644 165.007 44.0789 164.721 44.1935C164.434 44.308 164.191 44.3939 163.991 44.4511ZM132.681 6.05566C129.188 11.009 127.442 17.2794 127.442 24.8669C127.442 26.6421 127.642 29.176 128.043 32.4687C128.444 35.7041 129.675 39.0683 131.737 42.5614C126.182 38.2094 123.405 32.2826 123.405 24.781C123.405 20.1712 124.335 16.2916 126.196 13.1421C128.029 10.0498 130.19 7.68769 132.681 6.05566ZM160.812 23.7502V45.4819C156.26 47.343 152.337 48.2735 149.045 48.2735C143.49 48.2735 139.009 46.4411 135.602 42.7762C133.913 40.9151 132.638 38.5673 131.78 35.7327C130.949 32.8981 130.534 29.6055 130.534 25.8547C130.534 9.47718 137.391 1.28844 151.106 1.28844C156.145 1.28844 161.027 2.13308 165.751 3.82237C165.751 6.48514 165.794 8.53233 165.88 9.96393C165.966 11.1951 166.009 12.6983 166.009 14.4735H165.15C164.463 11.3812 162.845 8.94749 160.297 7.17231C157.691 5.39713 154.585 4.50954 150.977 4.50954C139.839 4.50954 134.271 11.1951 134.271 24.5662C134.271 38.1378 139.009 44.9236 148.486 44.9236C152.266 44.9236 154.943 44.0217 156.518 42.2178C157.033 41.273 157.291 39.5264 157.291 36.9782V31.1802C157.291 27.0286 155.773 24.6378 152.738 24.0079V23.2348C153.798 23.2921 155.272 23.378 157.162 23.4925C158.622 23.6071 159.839 23.693 160.812 23.7502ZM229.304 42.9909C232.425 38.7534 233.985 32.3684 233.985 23.8361C233.985 16.3059 232.439 10.4364 229.347 6.22745C235.245 9.74919 238.194 15.7762 238.194 24.3085C238.194 32.7263 235.231 38.9538 229.304 42.9909ZM194.688 6.18451C191.538 11.0519 189.964 17.2794 189.964 24.8669C189.964 31.7385 191.467 37.694 194.473 42.7332C188.69 38.9252 185.798 32.8266 185.798 24.4374C185.798 15.8192 188.761 9.73487 194.688 6.18451ZM226.813 24.6092C226.813 10.8945 221.831 4.03711 211.867 4.03711C202.104 4.03711 197.222 11.0663 197.222 25.1246C197.222 38.3525 202.161 44.9665 212.039 44.9665C221.888 44.9665 226.813 38.1807 226.813 24.6092ZM230.85 24.5662C230.85 29.8345 230.048 34.2868 228.445 37.9231C226.87 41.5307 224.651 44.1935 221.788 45.9114C218.982 47.6579 215.704 48.5312 211.953 48.5312C205.998 48.5312 201.388 46.3981 198.124 42.132C194.86 37.8658 193.228 31.9962 193.228 24.5233C193.228 16.764 194.888 10.8086 198.21 6.65693C201.531 2.56256 206.084 0.515375 211.867 0.515375C217.737 0.515375 222.375 2.56256 225.782 6.65693C229.161 10.7227 230.85 16.6924 230.85 24.5662Z" fill="white"/>
</svg>
